<?xml version="1.0" encoding="utf-8"?>
<!-- Generator: Adobe Illustrator 22.0.1, SVG Export Plug-In . SVG Version: 6.00 Build 0)  -->
<svg version="1.1" id="Livello_1" xmlns="http://www.w3.org/2000/svg" xmlns:xlink="http://www.w3.org/1999/xlink" x="0px" y="0px"
	 viewBox="0 0 840.5 236.4" style="enable-background:new 0 0 840.5 236.4; padding-right: 60px" xml:space="preserve">
<style type="text/css">
	.st0{fill:#FFFFFF;}
</style>
<path class="st0" d="M142.7,176.3c-3.4,5.4-8.2,9.4-14.2,12.4c-5.9,2.9-12.6,4.4-19.9,4.4c-14,0-24.9-3.6-33.1-11.1
	s-12.4-17.4-12.4-29.8c0-13,4.2-23.3,12.6-31.4c8.4-7.8,19.7-11.9,33.7-11.9c5.5,0,11.3,0.8,17,2.1c5.9,1.3,9,2.1,9.2,2.1
	c1,0,1.7-0.4,2.3-1c0.6-0.6,1.1-1.5,1.3-2.5h2.1v29.6h-2.1c-2.1-7.8-5.2-13.6-9-17.6c-3.8-4-8.4-5.9-13.8-5.9
	c-5.5,0-10.1,2.9-13.8,8.8c-3.6,5.7-5.4,13.4-5.4,22.8c0,10.7,2.3,19.3,6.7,25.4c4.4,6.3,10.5,9.4,18,9.4c3.6,0,7.1-1,10.3-2.7
	c3.3-1.7,6.7-4.6,10.1-8.2v5L142.7,176.3L142.7,176.3z M158.4,154.5c0.8-5.2,3.6-9.6,8.8-12.8c5.2-3.3,11.5-5,18.7-5
	c9.4,0,16.3,2.3,20.7,6.7c4.2,4.4,6.5,11.5,6.5,21.4v16.3c0,1.7,0.2,2.9,0.6,3.6c0.4,0.8,1.1,1.1,2.1,1.1c0.8,0,1.3-0.2,1.7-0.8
	c0.6-0.6,1-1.3,1.3-2.5h1.7c-0.2,3.3-1.9,5.9-4.8,7.8c-2.9,1.9-6.7,2.9-11.3,2.9c-3.3,0-5.9-0.4-8.4-1.3c-2.5-1-4.6-2.5-6.5-4.4
	c-3.1,1.9-6.3,3.4-9.8,4.4c-3.3,1-6.7,1.5-10.1,1.5c-5.4,0-9.6-1.1-12.6-3.4c-3.1-2.3-4.6-5.4-4.6-9.4c0-5.7,3.1-10.3,9-14
	c6.3-4.2,15.1-6.7,26.8-8c-0.2-4-1.3-6.9-3.4-9c-2.1-1.9-5.2-3.1-9-3.1c-2.9,0-5.5,0.6-8,1.9s-4.8,3.3-7.1,5.7h-2.3L158.4,154.5
	L158.4,154.5z M188.2,163.5c-3.6,1.7-6.3,3.6-8,5.9c-1.7,2.3-2.7,4.8-2.7,7.6c0,2.1,0.6,3.8,1.5,5.2c1,1.3,2.3,1.9,4,1.9
	c1.3,0,2.5-0.4,3.4-1c1-0.8,1.5-1.5,1.7-2.7L188.2,163.5L188.2,163.5z M231,191.3V171h2.3c1.9,5.4,4.4,9.4,7.3,12.2
	c3.1,2.9,6.3,4.2,10.1,4.2c1.7,0,3.3-0.6,4.4-1.5c1.1-1,1.7-2.3,1.7-3.8c0-3.1-3.1-5.7-9.2-8.2c-0.4-0.2-0.8-0.2-0.8-0.4
	c-6.1-2.5-10.3-5.4-13-8.2c-2.5-2.9-3.8-6.3-3.8-10.5c0-5.4,2.1-9.8,6.5-13.2c4.4-3.4,9.9-5.2,17-5.2c5,0,10.3,1,15.5,2.9
	c1.3,0.6,2.1,0.8,2.5,0.8c0.6,0,1.1-0.2,1.7-0.6c0.6-0.4,1-1.1,1.3-2.1h1.7v17.6h-2.5c-1.5-4.2-3.4-7.6-6.1-9.9
	c-2.5-2.3-5.4-3.4-8.6-3.4c-1.9,0-3.4,0.4-4.4,1.1c-1,0.8-1.5,2.1-1.5,3.6c0,1.3,0.6,2.5,1.5,3.4c1,1,2.7,1.9,4.6,2.9
	c1.1,0.4,2.5,1,4.4,1.7c4.6,1.7,7.5,3.1,8.8,4c2.5,1.7,4.4,3.8,5.7,6.1s1.9,5,1.9,7.8c0,6.1-2.1,10.9-6.1,14.7
	c-4,3.6-9.4,5.5-16.1,5.5c-4.2,0-8.8-0.8-13.4-2.1c-4.8-1.3-7.5-2.1-8.2-2.1c-1,0-1.9,0.2-2.7,0.6c-0.8,0.4-1.1,1-1.3,1.7H231
	L231,191.3L231,191.3z M297,154.5c0.8-5.2,3.6-9.6,8.8-12.8c5.2-3.3,11.5-5,18.7-5c9.4,0,16.3,2.3,20.7,6.7
	c4.2,4.4,6.5,11.5,6.5,21.4v16.3c0,1.7,0.2,2.9,0.6,3.6c0.4,0.8,1.1,1.1,2.1,1.1c0.8,0,1.3-0.2,1.7-0.8c0.6-0.6,1-1.3,1.3-2.5h1.7
	c-0.2,3.3-1.9,5.9-4.8,7.8c-2.9,1.9-6.7,2.9-11.3,2.9c-3.3,0-5.9-0.4-8.4-1.3s-4.6-2.5-6.5-4.4c-3.1,1.9-6.3,3.4-9.8,4.4
	c-3.3,1-6.7,1.5-10.1,1.5c-5.4,0-9.6-1.1-12.6-3.4s-4.6-5.4-4.6-9.4c0-5.7,3.1-10.3,9-14s14.7-6.1,26.4-7.5c-0.2-4-1.3-6.9-3.4-9
	c-2.1-1.9-5.2-3.1-9-3.1c-2.9,0-5.5,0.6-8,1.9c-2.5,1.3-4.8,3.3-7.1,5.7H297L297,154.5L297,154.5z M326.8,163.5
	c-3.6,1.7-6.3,3.6-8,5.9c-1.7,2.3-2.7,4.8-2.7,7.6c0,2.1,0.6,3.8,1.5,5.2s2.3,1.9,4,1.9c1.3,0,2.5-0.4,3.4-1c1-0.8,1.5-1.5,1.7-2.7
	L326.8,163.5L326.8,163.5z"/>
<path class="st0" d="M402.6,192.2V167h2.1c1.1,5.9,3.6,10.7,7.5,14.3s8.6,5.4,14,5.4c3.6,0,6.3-0.8,8.2-2.3s2.9-3.6,2.9-6.5
	c0-4-4.2-9.2-12.8-15.1c-0.2-0.2-0.4-0.4-0.6-0.4c-8.6-6.1-14.3-11.3-17.2-15.1c-2.7-4-4.2-8.2-4.2-13.2c0-7.5,2.9-13.4,8.8-18
	c5.9-4.6,14-6.9,23.9-6.9c4.6,0,9.6,0.6,14.5,1.7s7.6,1.7,8,1.7c0.8,0,1.5-0.2,2.1-0.6c0.6-0.4,1.3-1,1.9-1.7h2.3v22h-2.3
	c-1.7-5.7-4.2-9.9-7.5-12.6c-3.1-2.9-7.1-4.2-11.5-4.2c-3.1,0-5.5,0.8-7.5,2.5c-1.9,1.7-2.9,3.8-2.9,6.5c0,4,4.2,8.8,12.4,14.3
	c1.9,1.3,3.6,2.5,4.6,3.3c6.3,4.6,10.9,8.8,13.8,13.2c2.9,4.2,4.2,9,4.2,14c0,7.6-2.7,13.6-8,17.8c-5.4,4.4-12.6,6.5-22,6.5
	c-8.6,0-17.2-1.1-25.6-3.3c-1.7-0.4-2.7-0.6-3.1-0.6c-1,0-1.9,0.2-2.7,0.8c-0.8,0.4-1.3,1.1-1.7,1.9h-1.7L402.6,192.2L402.6,192.2z
	 M504.1,160.8c0.4,7.5,2.1,13.2,5.2,17.2c3.1,4,7.5,6.1,12.8,6.1c3.3,0,6.1-1,8.6-2.7c2.5-1.7,4.8-4.4,6.5-7.8h3.8
	c-2.5,6.5-6.3,11.3-11.7,14.3c-5.4,3.3-12,4.8-20.3,4.8c-9.6,0-17.2-2.7-23-7.8c-5.9-5.2-8.8-12-8.8-20.3s3.1-14.9,9.2-20.3
	c6.1-5.4,14-7.8,23.5-7.8c8.6,0,15.5,2.3,21.2,6.7c5.5,4.4,8.6,10.3,9.2,17.4h-36.3L504.1,160.8L504.1,160.8z M504.1,156.3h12.4
	c0-4.8-0.6-8.4-1.5-10.7s-2.5-3.4-4.6-3.4s-3.6,1.1-4.6,3.4C504.7,147.6,504.1,151.3,504.1,156.3L504.1,156.3z M556.9,150.1
	c0-3.1-0.6-5.4-1.7-6.7s-3.3-2.1-6.3-2.3v-2.5l33.3-2.1v12.8c2.1-4.2,4.6-7.5,7.5-9.6c2.9-2.3,5.7-3.3,9-3.3c1.7,0,3.4,0.2,4.8,0.8
	s2.7,1.3,3.6,2.3l-3.6,19.3c-2.1-2.3-4-4.2-5.9-5.4s-3.8-1.7-5.7-1.7c-1.9,0-3.8,0.6-5.4,1.5c-1.7,1.1-3.1,2.7-4,4.6v18.9
	c0,4.2,0.8,7.3,2.1,9c1.3,1.7,3.6,2.9,6.9,3.1v2.1h-42.1V189c3.1-0.4,5.2-1.3,6.3-3.3c1.1-1.7,1.9-4.8,1.9-8.8v-26.8L556.9,150.1
	L556.9,150.1z M638.6,160.8c0.4,7.5,2.1,13.2,5.2,17.2c3.1,4,7.5,6.1,12.8,6.1c3.3,0,6.1-1,8.6-2.7c2.5-1.7,4.8-4.4,6.5-7.8h3.8
	c-2.5,6.5-6.3,11.3-11.7,14.3c-5.4,3.3-12,4.8-20.3,4.8c-9.6,0-17.2-2.7-23-7.8c-5.9-5.2-8.8-12-8.8-20.3s3.1-14.9,9.2-20.3
	c6.1-5.4,14-7.8,23.5-7.8c8.6,0,15.5,2.3,21.2,6.7c5.5,4.4,8.6,10.3,9.2,17.4h-36.3L638.6,160.8L638.6,160.8z M638.6,156.3H651
	c0-4.8-0.6-8.4-1.5-10.7s-2.5-3.4-4.6-3.4s-3.6,1.1-4.6,3.4C639.2,147.6,638.6,151.3,638.6,156.3L638.6,156.3z M682.4,191.4v-2.1
	c3.1-0.4,5.2-1.3,6.5-3.3c1.3-1.7,1.9-4.8,1.9-8.8v-27.2c0-3.1-0.6-5.4-1.9-6.7c-1.1-1.3-3.4-2.1-6.5-2.3v-2.5l33.3-1.9v6.9
	c2.7-2.3,5.7-4,9-5.2c3.4-1.1,6.9-1.7,10.9-1.7c7.6,0,13.4,1.9,17.2,5.9c3.8,3.8,5.7,9.8,5.7,17.4v17.8c0,2.9,0.2,4.8,0.4,6.1
	c0.2,1.1,0.8,2.1,1.5,2.9c0.4,0.6,1.1,1,2.1,1.3s2.1,0.8,3.4,1v2.1h-39.6v-2.1c2.7-0.4,4.4-1.3,5.5-2.9c1-1.5,1.5-4.6,1.5-8.8v-18.4
	c0-4.4-0.8-7.5-2.1-9.4c-1.3-1.9-3.6-2.9-6.9-2.9c-1.5,0-3.1,0.4-4.6,1.1c-1.5,0.8-3.1,1.7-4.4,3.1v26.2c0,4.6,0.4,7.6,1.3,9.2
	s2.7,2.5,5.2,2.9v2.1L682.4,191.4L682.4,191.4z M778.4,154.5c0.8-5.2,3.6-9.6,8.8-12.8c5.2-3.3,11.5-5,18.7-5
	c9.4,0,16.3,2.3,20.7,6.7c4.2,4.4,6.5,11.5,6.5,21.4v16.3c0,1.7,0.2,2.9,0.6,3.6c0.4,0.8,1.1,1.1,2.1,1.1c0.8,0,1.3-0.2,1.7-0.8
	c0.6-0.6,1-1.3,1.3-2.5h1.7c-0.2,3.3-1.9,5.9-4.8,7.8c-2.9,1.9-6.7,2.9-11.3,2.9c-3.3,0-5.9-0.4-8.4-1.3s-4.6-2.5-6.5-4.4
	c-3.1,1.9-6.3,3.4-9.8,4.4c-3.3,1-6.7,1.5-10.1,1.5c-5.4,0-9.6-1.1-12.6-3.4c-3.1-2.3-4.6-5.4-4.6-9.4c0-5.7,3.1-10.3,9-14
	s14.7-6.1,26.4-7.5c-0.2-4-1.3-6.9-3.4-9c-2.1-1.9-5.2-3.1-9-3.1c-2.9,0-5.5,0.6-8,1.9s-4.8,3.3-7.1,5.7h-1.9L778.4,154.5
	L778.4,154.5z M808.2,163.5c-3.6,1.7-6.3,3.6-8,5.9c-1.7,2.3-2.7,4.8-2.7,7.6c0,2.1,0.6,3.8,1.5,5.2s2.3,1.9,4,1.9
	c1.3,0,2.5-0.4,3.4-1c1-0.8,1.5-1.5,1.7-2.7L808.2,163.5L808.2,163.5z"/>
<path class="st0" d="M341.2,111.3L212.5,0h-75.7l130.4,111.3H341.2z"/>
<path class="st0" d="M139,2.3L0,113.6"/>
<g>
	<path class="st0" d="M254.9,226.8c0,1.3,0.2,2.5,0.6,3.4c0.4,1,0.8,1.7,1.3,2.5c0.6,0.6,1.1,1.1,1.9,1.3c0.8,0.4,1.3,0.4,2.1,0.4
		c0.8,0,1.5-0.2,2.1-0.4c0.6-0.2,1.1-0.6,1.5-1.1c0.4-0.4,0.8-1,1.1-1.5c0.4-0.6,0.6-1.1,0.6-1.7h1.9c-0.2,1-0.4,1.7-0.8,2.5
		c-0.4,0.8-1,1.5-1.5,2.1c-0.6,0.6-1.3,1-2.1,1.3c-0.8,0.4-1.7,0.6-2.7,0.6c-1.1,0-2.3-0.2-3.3-0.6c-1-0.4-1.7-1-2.5-1.9
		c-0.8-0.8-1.1-1.7-1.5-2.9c-0.4-1.1-0.6-2.5-0.6-4c0-1.1,0.2-2.3,0.6-3.3c0.4-1.1,0.8-2.1,1.5-2.9c0.6-0.8,1.5-1.5,2.5-1.9
		c1-0.6,2.1-0.8,3.3-0.8c1,0,1.9,0.2,2.7,0.4c0.8,0.2,1.5,0.6,2.1,1.1c0.6,0.6,1.1,1.1,1.5,1.7c0.4,0.6,0.8,1.3,1,2.3h-1.9
		c-0.4-1.3-1.1-2.3-1.9-2.9c-1-0.6-1.9-1-3.4-1c-1,0-1.7,0.2-2.3,0.6c-0.8,0.4-1.3,1-1.9,1.5c-0.6,0.8-1,1.5-1.1,2.3
		C255.1,224.9,254.9,225.9,254.9,226.8L254.9,226.8z M272.7,229.9c0,0.6,0.2,1.1,0.4,1.7s0.4,1,0.8,1.5c0.4,0.4,0.8,0.8,1.1,1
		s1,0.4,1.5,0.4c1.7,0,3.1-0.8,3.6-2.5h1.7c-0.2,0.6-0.4,1.1-0.8,1.7c-0.4,0.6-0.8,1-1.1,1.3c-0.4,0.4-1,0.6-1.5,0.8
		c-0.6,0.2-1.1,0.2-1.7,0.2c-1,0-1.7-0.2-2.3-0.6c-0.8-0.4-1.3-0.8-1.7-1.5c-0.6-0.6-1-1.3-1.1-2.1c-0.2-0.8-0.4-1.7-0.4-2.5
		s0.2-1.7,0.4-2.3c0.2-0.8,0.6-1.3,1.1-1.9c0.6-0.6,1.1-1,1.7-1.3c0.8-0.4,1.5-0.6,2.3-0.6c0.8,0,1.5,0.2,2.3,0.4
		c0.8,0.4,1.3,0.8,1.7,1.3c0.4,0.6,0.8,1.1,1.1,1.9c0.2,0.8,0.4,1.5,0.4,2.5v0.8h-9.6L272.7,229.9L272.7,229.9z M280,228.4
		c0-0.6-0.2-1-0.4-1.5c-0.2-0.4-0.4-0.8-0.8-1.1s-0.8-0.6-1.1-0.8c-0.4-0.2-1-0.4-1.5-0.4c-0.6,0-1,0.2-1.3,0.4
		c-0.4,0.2-0.8,0.6-1.1,0.8c-0.4,0.4-0.6,0.8-0.8,1.1s-0.2,1-0.4,1.3h7.5V228.4z M284.6,223.2h1.9v1.9c0.6-0.8,1.3-1.3,2.1-1.5
		c0.8-0.4,1.5-0.6,2.3-0.6c1.1,0,2.1,0.4,2.7,1c0.6,0.6,1,1.5,1,2.7v9h-1.9v-8.8c0-0.8-0.2-1.5-0.6-1.7c-0.4-0.4-1-0.6-1.7-0.6
		c-0.6,0-1.1,0.2-1.5,0.4c-0.6,0.2-1,0.4-1.3,0.8c-0.4,0.4-0.6,0.8-0.8,1.1c-0.2,0.4-0.4,1-0.4,1.3v7.5h-1.9v-12.4L284.6,223.2
		L284.6,223.2z M300.1,219.6v3.6h1.9v1.5h-1.9v8c0,0.6,0.2,1,0.4,1.1s0.6,0.4,1,0.4c0.2,0,0.6,0,0.8-0.2v1.5c-0.6,0.2-1,0.2-1.5,0.2
		c-0.4,0-0.6,0-1-0.2c-0.4,0-0.6-0.2-0.8-0.4s-0.4-0.4-0.6-0.8c-0.2-0.4-0.2-0.8-0.2-1.1v-8.8h-1.9V223h1.9v-3.6h1.9L300.1,219.6
		L300.1,219.6z M304.9,223.2h1.9v1.9c0.8-1.3,1.9-2.1,3.3-2.1h0.4c0.2,0,0.4,0,0.4,0.2v1.9c-0.4-0.2-0.8-0.2-1-0.2
		c-0.6,0-1,0-1.3,0.2c-0.4,0.2-0.8,0.4-1,0.8c-0.2,0.4-0.4,0.6-0.6,1.1c-0.2,0.4-0.2,0.8-0.2,1.3v7.5h-1.9L304.9,223.2L304.9,223.2z
		 M312.5,229.5c0-1,0.2-1.7,0.4-2.5c0.2-0.8,0.6-1.5,1.1-2.1c0.4-0.6,1.1-1,1.7-1.3c0.8-0.4,1.5-0.6,2.5-0.6c1,0,1.7,0.2,2.5,0.6
		c0.8,0.4,1.3,0.8,1.7,1.3c0.6,0.6,0.8,1.3,1.1,2.1c0.2,0.8,0.4,1.5,0.4,2.5s-0.2,1.7-0.4,2.5c-0.2,0.8-0.6,1.5-1.1,2.1
		c-0.6,0.6-1.1,1-1.7,1.3c-0.8,0.4-1.5,0.6-2.5,0.6c-1,0-1.7-0.2-2.5-0.6c-0.8-0.4-1.3-0.8-1.7-1.3c-0.4-0.6-0.8-1.3-1.1-2.1
		C312.7,231.2,312.5,230.5,312.5,229.5z M314.4,229.5c0,0.6,0,1.3,0.2,1.9c0.2,0.6,0.4,1.1,0.8,1.5c0.4,0.4,0.8,0.8,1.1,1
		c0.4,0.2,1,0.4,1.5,0.4c0.6,0,1.1-0.2,1.5-0.4c0.4-0.2,1-0.6,1.1-1c0.4-0.4,0.6-1,0.8-1.5c0.2-0.6,0.2-1.1,0.2-1.9
		c0-0.6,0-1.3-0.2-1.9c-0.2-0.6-0.4-1.1-0.8-1.5c-0.4-0.4-0.8-0.8-1.1-1c-0.4-0.2-1-0.4-1.5-0.4c-0.6,0-1.1,0.2-1.5,0.4
		c-0.4,0.2-1,0.6-1.1,1c-0.4,0.4-0.6,1-0.8,1.5C314.4,228.2,314.4,228.7,314.4,229.5z M340.6,218.4l6.3,17.4H345l-1.9-5.4h-7.5
		l-1.9,5.4h-1.9l6.3-17.4H340.6L340.6,218.4z M339.3,220.1l-3.1,8.6h6.1L339.3,220.1L339.3,220.1z M350.4,231.8c0,1,0.4,1.5,0.8,1.9
		c0.6,0.4,1.1,0.6,2.1,0.6h1c0.4,0,0.8-0.2,1-0.4c0.4-0.2,0.6-0.4,0.8-0.6c0.2-0.2,0.4-0.6,0.4-1c0-0.4-0.2-0.8-0.6-1.1
		c-0.4-0.4-0.8-0.6-1.3-0.8l-1.7-0.6c-0.6-0.2-1.1-0.4-1.7-0.8c-0.6-0.4-1-0.6-1.3-1.1c-0.4-0.4-0.6-1-0.6-1.7c0-0.6,0.2-1,0.4-1.5
		c0.2-0.4,0.6-0.8,1-1c0.4-0.2,0.8-0.4,1.3-0.6c0.6-0.2,1.1-0.2,1.7-0.2s1.1,0,1.7,0.2c0.6,0.2,1,0.4,1.5,0.6c0.4,0.2,0.8,0.6,1,1.1
		c0.2,0.4,0.4,1,0.4,1.5h-1.9c0-0.6-0.4-1.1-1-1.3c-0.6-0.2-1.1-0.4-1.9-0.4c-0.8,0-1.3,0.2-1.9,0.4c-0.4,0.4-0.6,0.8-0.6,1.1
		c0,0.4,0.2,0.8,0.6,1.1c0.4,0.2,0.8,0.6,1.3,0.8l1.7,0.6c0.6,0.2,1.1,0.4,1.7,0.8c0.6,0.4,1,0.6,1.3,1.1c0.4,0.4,0.6,1,0.6,1.5
		c0,0.8-0.2,1.3-0.4,1.7c-0.2,0.4-0.6,1-1.1,1.1c-0.4,0.4-1,0.6-1.5,0.6c-0.6,0.2-1.1,0.2-1.9,0.2c-0.6,0-1.1,0-1.7-0.2
		s-1.1-0.4-1.5-0.8c-0.4-0.4-0.8-0.8-1-1.3c-0.2-0.6-0.4-1.1-0.4-1.7L350.4,231.8L350.4,231.8z M362.8,231.8c0,1,0.4,1.5,0.8,1.9
		c0.6,0.4,1.1,0.6,2.1,0.6h1c0.4,0,0.8-0.2,1-0.4c0.4-0.2,0.6-0.4,0.8-0.6c0.2-0.2,0.4-0.6,0.4-1c0-0.4-0.2-0.8-0.6-1.1
		s-0.8-0.6-1.3-0.8l-1.7-0.6c-0.6-0.2-1.1-0.4-1.7-0.8c-0.6-0.4-1-0.6-1.3-1.1c-0.4-0.4-0.6-1-0.6-1.7c0-0.6,0.2-1,0.4-1.5
		c0.2-0.4,0.6-0.8,1-1c0.4-0.2,0.8-0.4,1.3-0.6c0.6-0.2,1.1-0.2,1.7-0.2c0.6,0,1.1,0,1.7,0.2s1,0.4,1.5,0.6c0.4,0.2,0.8,0.6,1,1.1
		c0.2,0.4,0.4,1,0.4,1.5h-1.9c0-0.6-0.4-1.1-1-1.3c-0.6-0.2-1.1-0.4-1.9-0.4s-1.3,0.2-1.9,0.4c-0.4,0.4-0.6,0.8-0.6,1.1
		c0,0.4,0.2,0.8,0.6,1.1c0.4,0.2,0.8,0.6,1.3,0.8l1.7,0.6c0.6,0.2,1.1,0.4,1.7,0.8c0.6,0.4,1,0.6,1.3,1.1c0.4,0.4,0.6,1,0.6,1.5
		c0,0.8-0.2,1.3-0.4,1.7c-0.2,0.4-0.6,1-1.1,1.1c-0.4,0.4-1,0.6-1.5,0.6c-0.6,0.2-1.1,0.2-1.9,0.2c-0.6,0-1.1,0-1.7-0.2
		s-1.1-0.4-1.5-0.8c-0.4-0.4-0.8-0.8-1-1.3c-0.2-0.6-0.4-1.1-0.4-1.7L362.8,231.8L362.8,231.8z M375.6,218.2v2.1h-1.9v-2.1H375.6z
		 M375.6,223.2v12.4h-1.9v-12.4H375.6z M380.4,231.8c0,1,0.4,1.5,0.8,1.9c0.6,0.4,1.1,0.6,2.1,0.6h1c0.4,0,0.8-0.2,1-0.4
		c0.4-0.2,0.6-0.4,0.8-0.6c0.2-0.2,0.4-0.6,0.4-1c0-0.4-0.2-0.8-0.6-1.1c-0.4-0.4-0.8-0.6-1.3-0.8l-1.7-0.6
		c-0.6-0.2-1.1-0.4-1.7-0.8c-0.6-0.4-1-0.6-1.3-1.1c-0.4-0.4-0.6-1-0.6-1.7c0-0.6,0.2-1,0.4-1.5c0.2-0.4,0.6-0.8,1-1
		c0.4-0.2,0.8-0.4,1.3-0.6c0.6-0.2,1.1-0.2,1.7-0.2s1.1,0,1.7,0.2c0.6,0.2,1,0.4,1.5,0.6c0.4,0.2,0.8,0.6,1,1.1
		c0.2,0.4,0.4,1,0.4,1.5h-1.9c0-0.6-0.4-1.1-1-1.3c-0.6-0.2-1.1-0.4-1.9-0.4c-0.8,0-1.3,0.2-1.9,0.4c-0.4,0.4-0.6,0.8-0.6,1.1
		c0,0.4,0.2,0.8,0.6,1.1c0.4,0.2,0.8,0.6,1.3,0.8l1.7,0.6c0.6,0.2,1.1,0.4,1.7,0.8c0.6,0.4,1,0.6,1.3,1.1c0.4,0.4,0.6,1,0.6,1.5
		c0,0.8-0.2,1.3-0.4,1.7s-0.6,1-1.1,1.1c-0.4,0.4-1,0.6-1.5,0.6c-0.6,0.2-1.1,0.2-1.9,0.2c-0.6,0-1.1,0-1.7-0.2s-1.1-0.4-1.5-0.8
		c-0.4-0.4-0.8-0.8-1-1.3c-0.2-0.6-0.4-1.1-0.4-1.7L380.4,231.8L380.4,231.8z M393.8,219.6v3.6h1.9v1.5h-1.9v8c0,0.6,0.2,1,0.4,1.1
		c0.2,0.2,0.6,0.4,1,0.4c0.2,0,0.6,0,0.8-0.2v1.5c-0.6,0.2-1,0.2-1.5,0.2c-0.4,0-0.6,0-1-0.2c-0.4,0-0.6-0.2-0.8-0.4
		s-0.4-0.4-0.6-0.8c-0.2-0.4-0.2-0.8-0.2-1.1v-8.8H390V223h1.9v-3.6h1.9L393.8,219.6L393.8,219.6z M400.5,229.9
		c0,0.6,0.2,1.1,0.4,1.7s0.4,1,0.8,1.5c0.4,0.4,0.8,0.8,1.1,1s1,0.4,1.5,0.4c1.7,0,3.1-0.8,3.6-2.5h1.7c-0.2,0.6-0.4,1.1-0.8,1.7
		c-0.4,0.6-0.8,1-1.1,1.3c-0.4,0.4-1,0.6-1.5,0.8c-0.6,0.2-1.1,0.2-1.7,0.2c-1,0-1.7-0.2-2.3-0.6c-0.8-0.4-1.3-0.8-1.7-1.5
		c-0.6-0.6-1-1.3-1.1-2.1c-0.2-0.8-0.4-1.7-0.4-2.5s0.2-1.7,0.4-2.3c0.2-0.8,0.6-1.3,1.1-1.9c0.6-0.6,1.1-1,1.7-1.3
		c0.8-0.4,1.5-0.6,2.3-0.6c0.8,0,1.5,0.2,2.3,0.4c0.8,0.4,1.3,0.8,1.7,1.3c0.4,0.6,0.8,1.1,1.1,1.9c0.2,0.8,0.4,1.5,0.4,2.5v0.8
		h-9.6L400.5,229.9L400.5,229.9z M407.7,228.4c0-0.6-0.2-1-0.4-1.5c-0.2-0.4-0.4-0.8-0.8-1.1s-0.8-0.6-1.1-0.8
		c-0.4-0.2-1-0.4-1.5-0.4c-0.6,0-1,0.2-1.3,0.4c-0.4,0.2-0.8,0.6-1.1,0.8c-0.4,0.4-0.6,0.8-0.8,1.1s-0.2,1-0.4,1.3h7.5V228.4z
		 M412.3,223.2h1.9v1.9c0.6-0.8,1.3-1.3,2.1-1.5c0.8-0.4,1.5-0.6,2.3-0.6c1.1,0,2.1,0.4,2.7,1c0.6,0.6,1,1.5,1,2.7v9h-1.9v-8.8
		c0-0.8-0.2-1.5-0.6-1.7c-0.4-0.4-1-0.6-1.7-0.6c-0.6,0-1.1,0.2-1.5,0.4c-0.6,0.2-1,0.4-1.3,0.8c-0.4,0.4-0.6,0.8-0.8,1.1
		c-0.2,0.4-0.4,1-0.4,1.3v7.5h-1.9v-12.4L412.3,223.2L412.3,223.2z M434.9,223.2v1.7l-7.6,9h7.6v1.7H425v-1.5l7.5-9H425v-1.7h9.9
		V223.2z M438,226.6c0-0.6,0.2-1.1,0.6-1.5l1.1-1.1c0.4-0.4,1-0.6,1.5-0.6c0.6-0.2,1.1-0.2,1.7-0.2c0.6,0,1.1,0,1.7,0.2
		s1.1,0.4,1.5,0.6l1.1,1.1c0.2,0.4,0.4,1,0.4,1.7v6.5c0,0.2,0,0.6,0.2,0.8s0.4,0.4,0.6,0.4h0.6v1.5c-0.2,0-0.6,0.2-0.6,0.2h-0.6
		c-0.6,0-1-0.2-1.3-0.6c-0.4-0.4-0.6-1-0.6-1.7c-0.4,0.6-0.8,1-1.1,1.1c-0.4,0.4-0.8,0.6-1.1,0.8c-0.4,0.2-0.8,0.4-1.1,0.4h-1.1
		c-0.6,0-1,0-1.5-0.2c-0.4-0.2-0.8-0.4-1.1-0.8c-0.4-0.4-0.6-0.6-0.8-1.1c-0.2-0.4-0.4-1-0.4-1.5c0-0.8,0.2-1.3,0.6-1.7
		c0.4-0.4,1-0.8,1.5-1.1c0.6-0.2,1.3-0.6,1.9-0.8c0.8-0.2,1.3-0.4,1.9-0.6c0.6-0.2,1.1-0.4,1.5-0.6s0.6-0.6,0.6-1
		c0-0.8-0.2-1.3-0.8-1.5c-0.6-0.4-1.3-0.4-2.3-0.4c-0.8,0-1.3,0.2-1.9,0.4c-0.6,0.4-1,0.8-1,1.5H438L438,226.6L438,226.6z
		 M445.8,228.7c-0.2,0.2-0.6,0.6-1,0.8c-0.4,0.2-0.8,0.4-1.3,0.6c-0.4,0.2-1,0.2-1.3,0.4c-0.4,0.2-1,0.4-1.3,0.4
		c-0.4,0.2-0.8,0.4-1,0.6c-0.2,0.2-0.4,0.6-0.4,1c0,0.4,0,0.6,0.2,1l0.6,0.6c0.2,0.2,0.4,0.2,0.8,0.4c0.2,0,0.6,0.2,0.8,0.2
		c0.8,0,1.5-0.2,2.3-0.8c0.8-0.4,1.3-1.1,1.9-2.1v-2.9L445.8,228.7L445.8,228.7z M465.9,218.4l6.3,17.4h-1.9l-1.9-5.4h-7.5l-1.9,5.4
		h-1.9l6.3-17.4H465.9L465.9,218.4z M464.5,220.1l-3.1,8.6h6.1L464.5,220.1L464.5,220.1z M473.7,223.2h1.9v1.9
		c0.6-0.8,1.3-1.3,2.1-1.5c0.8-0.4,1.5-0.6,2.3-0.6c1.1,0,2.1,0.4,2.7,1c0.6,0.6,1,1.5,1,2.7v9h-1.9v-8.8c0-0.8-0.2-1.5-0.6-1.7
		c-0.4-0.4-1-0.6-1.7-0.6c-0.6,0-1.1,0.2-1.5,0.4c-0.6,0.2-1,0.4-1.3,0.8s-0.6,0.8-0.8,1.1c-0.2,0.4-0.4,1-0.4,1.3v7.5h-1.9v-12.4
		L473.7,223.2L473.7,223.2z M496.3,223.2v1.7l-7.6,9h7.6v1.7h-9.9v-1.5l7.5-9h-7.5v-1.7h9.9L496.3,223.2L496.3,223.2z M501.3,218.2
		v2.1h-1.9v-2.1H501.3z M501.3,223.2v12.4h-1.9v-12.4H501.3z M504.5,226.6c0-0.6,0.2-1.1,0.6-1.5l1.1-1.1c0.4-0.4,1-0.6,1.5-0.6
		c0.6-0.2,1.1-0.2,1.7-0.2c0.6,0,1.1,0,1.7,0.2c0.6,0.2,1.1,0.4,1.5,0.6l1.1,1.1c0.2,0.4,0.4,1,0.4,1.7v6.5c0,0.2,0,0.6,0.2,0.8
		c0.2,0.2,0.4,0.4,0.6,0.4h0.6v1.5c-0.2,0-0.6,0.2-0.6,0.2h-0.6c-0.6,0-1-0.2-1.3-0.6c-0.4-0.4-0.6-1-0.6-1.7
		c-0.4,0.6-0.8,1-1.1,1.1c-0.4,0.4-0.8,0.6-1.1,0.8c-0.4,0.2-0.8,0.4-1.1,0.4H508c-0.6,0-1,0-1.5-0.2c-0.4-0.2-0.8-0.4-1.1-0.8
		c-0.4-0.4-0.6-0.6-0.8-1.1c-0.2-0.4-0.4-1-0.4-1.5c0-0.8,0.2-1.3,0.6-1.7c0.4-0.4,1-0.8,1.5-1.1c0.6-0.2,1.3-0.6,1.9-0.8
		c0.6-0.2,1.3-0.4,1.9-0.6c0.6-0.2,1.1-0.4,1.5-0.6s0.6-0.6,0.6-1c0-0.8-0.2-1.3-0.8-1.5c-0.6-0.4-1.3-0.4-2.3-0.4
		c-0.8,0-1.3,0.2-1.9,0.4c-0.6,0.4-1,0.8-1,1.5h-1.7L504.5,226.6L504.5,226.6z M512.4,228.7c-0.2,0.2-0.6,0.6-1,0.8
		s-0.8,0.4-1.3,0.6c-0.4,0.2-1,0.2-1.3,0.4c-0.4,0.2-1,0.4-1.3,0.4c-0.4,0.2-0.8,0.4-1,0.6s-0.4,0.6-0.4,1c0,0.4,0,0.6,0.2,1
		l0.6,0.6c0.2,0.2,0.4,0.2,0.8,0.4c0.2,0,0.6,0.2,0.8,0.2c0.8,0,1.5-0.2,2.3-0.8c0.8-0.4,1.3-1.1,1.9-2.1v-2.9L512.4,228.7
		L512.4,228.7z M518.5,223.2h1.9v1.9c0.6-0.8,1.3-1.3,2.1-1.5c0.8-0.4,1.5-0.6,2.3-0.6c1.1,0,2.1,0.4,2.7,1c0.6,0.6,1,1.5,1,2.7v9
		h-1.9v-8.8c0-0.8-0.2-1.5-0.6-1.7c-0.4-0.4-1-0.6-1.7-0.6c-0.6,0-1.1,0.2-1.5,0.4c-0.6,0.2-1,0.4-1.3,0.8s-0.6,0.8-0.8,1.1
		s-0.4,1-0.4,1.3v7.5h-1.9v-12.4L518.5,223.2L518.5,223.2z M533.2,218.2v2.1h-1.9v-2.1H533.2z M533.2,223.2v12.4h-1.9v-12.4H533.2z
		 M558.1,227.8v1.7h-14.2v-1.7H558.1z M580.6,223.4c0,0.8-0.2,1.7-0.6,2.5c-0.4,0.8-1,1.3-1.7,1.9l1.1,0.6l0.8,0.8
		c0.2,0.4,0.2,0.6,0.4,1v3.8c0,0.4,0,0.8,0.2,1.1c0.2,0.4,0.2,0.6,0.4,1h-1.9c-0.2-0.2-0.2-0.6-0.4-1v-3.6c0-0.4,0-0.6-0.2-1
		c-0.2-0.4-0.4-0.6-0.6-1c-0.2-0.2-0.6-0.4-1-0.6c-0.4-0.2-1-0.2-1.5-0.2h-5.2v7.5h-1.9v-17.4h7.1c0.8,0,1.5,0.2,2.3,0.4l1.7,1.1
		c0.4,0.4,0.8,1,1,1.5C580.4,222,580.6,222.8,580.6,223.4L580.6,223.4z M570.1,226.6h5.2c0.4,0,1,0,1.3-0.2c0.4-0.2,0.8-0.4,1.1-0.8
		c0.4-0.4,0.6-0.6,0.8-1.1c0.2-0.4,0.2-0.8,0.2-1.3c0-0.4,0-1-0.2-1.3s-0.4-0.8-0.8-1c-0.4-0.2-0.6-0.6-1.1-0.8
		c-0.4-0.2-1-0.2-1.3-0.2h-5.2V226.6L570.1,226.6z M585.8,233.3v2.5h-2.3v-2.5H585.8z M590.2,230.3c0,0.6,0.2,1.1,0.4,1.7
		c0.2,0.6,0.6,1,1,1.3c0.4,0.4,1,0.6,1.3,1c0.6,0.2,1.1,0.4,1.7,0.4c0.6,0,1.1,0,1.7-0.2c0.6-0.2,1-0.4,1.3-0.6s0.8-0.6,1-1.1
		c0.2-0.4,0.4-1,0.4-1.5c0-0.6-0.2-1-0.4-1.3c-0.2-0.4-0.6-0.6-1-1c-0.4-0.2-1-0.6-1.5-0.8l-1.7-0.6c-0.8-0.2-1.3-0.4-2.1-0.8
		c-0.8-0.2-1.3-0.6-1.9-1c-0.6-0.4-1-1-1.3-1.5s-0.6-1.3-0.6-2.1c0-0.8,0.2-1.3,0.4-1.9c0.2-0.6,0.8-1,1.1-1.3
		c0.6-0.4,1.1-0.6,1.7-0.8c0.8-0.2,1.5-0.4,2.3-0.4c1.1,0,2.1,0.2,2.9,0.6c0.8,0.4,1.3,0.8,1.7,1.1c0.4,0.6,0.8,1.1,1,1.7
		c0.2,0.6,0.4,1.1,0.4,1.7H598c0-0.6-0.2-1.1-0.4-1.5c-0.2-0.4-0.6-0.8-1-1.1c-0.4-0.4-0.8-0.6-1.3-0.8c-0.4-0.2-1-0.2-1.5-0.2
		c-0.6,0-1,0-1.3,0.2s-1,0.2-1.3,0.6c-0.4,0.2-0.6,0.6-1,1c-0.2,0.4-0.4,0.8-0.4,1.3c0,0.6,0.2,1,0.4,1.3c0.2,0.4,0.6,0.8,1,1
		c0.4,0.2,1,0.6,1.5,0.8l1.7,0.6c0.8,0.2,1.3,0.4,2.1,0.8c0.8,0.2,1.3,0.6,1.9,1c0.6,0.4,1,0.8,1.3,1.3c0.4,0.6,0.6,1.3,0.6,2.1
		c0,0.8-0.2,1.5-0.4,2.3c-0.4,0.6-0.8,1.1-1.3,1.5c-0.6,0.4-1.1,0.8-1.9,1c-0.8,0.2-1.5,0.4-2.5,0.4c-0.8,0-1.5-0.2-2.3-0.4
		c-0.8-0.2-1.5-0.6-2.1-1.1c-0.6-0.6-1.1-1.1-1.5-1.9c-0.4-0.8-0.6-1.5-0.6-2.5h2.5L590.2,230.3L590.2,230.3z M605.9,233.3v2.5h-2.3
		v-2.5H605.9z M610.3,230.3c0,0.6,0.2,1.1,0.4,1.7c0.2,0.6,0.6,1,1,1.3c0.4,0.4,1,0.6,1.3,1c0.6,0.2,1.1,0.4,1.7,0.4
		c0.6,0,1.1,0,1.7-0.2c0.6-0.2,1-0.4,1.3-0.6c0.4-0.2,0.8-0.6,1-1.1c0.2-0.4,0.4-1,0.4-1.5c0-0.6-0.2-1-0.4-1.3
		c-0.2-0.4-0.6-0.6-1-1c-0.4-0.2-1-0.6-1.5-0.8l-1.7-0.6c-0.8-0.2-1.3-0.4-2.1-0.8c-0.8-0.2-1.3-0.6-1.9-1c-0.6-0.4-1-1-1.3-1.5
		c-0.4-0.6-0.6-1.3-0.6-2.1c0-0.8,0.2-1.3,0.4-1.9c0.2-0.6,0.8-1,1.1-1.3c0.6-0.4,1.1-0.6,1.7-0.8c0.8-0.2,1.5-0.4,2.3-0.4
		c1.1,0,2.1,0.2,2.9,0.6s1.3,0.8,1.7,1.1c0.4,0.6,0.8,1.1,1,1.7c0.2,0.6,0.4,1.1,0.4,1.7h-1.9c0-0.6-0.2-1.1-0.4-1.5
		c-0.2-0.4-0.6-0.8-1-1.1s-0.8-0.6-1.3-0.8c-0.4-0.2-1-0.2-1.5-0.2c-0.6,0-1,0-1.3,0.2c-0.4,0.2-1,0.2-1.3,0.6c-0.4,0.2-0.6,0.6-1,1
		c-0.2,0.4-0.4,0.8-0.4,1.3c0,0.6,0.2,1,0.4,1.3c0.2,0.4,0.6,0.8,1,1c0.4,0.2,1,0.6,1.5,0.8l1.7,0.6c0.8,0.2,1.3,0.4,2.1,0.8
		c0.8,0.2,1.3,0.6,1.9,1c0.6,0.4,1,0.8,1.3,1.3c0.4,0.6,0.6,1.3,0.6,2.1c0,0.8-0.2,1.5-0.4,2.3c-0.4,0.6-0.8,1.1-1.3,1.5
		c-0.6,0.4-1.1,0.8-1.9,1c-0.8,0.2-1.5,0.4-2.5,0.4c-0.8,0-1.5-0.2-2.3-0.4c-0.8-0.2-1.5-0.6-2.1-1.1c-0.6-0.6-1.1-1.1-1.5-1.9
		s-0.6-1.5-0.6-2.5h2.5L610.3,230.3L610.3,230.3z M626.2,233.3v2.5h-2.3v-2.5H626.2z M635.9,218.4l6.3,17.4h-1.9l-1.9-5.4h-7.5
		l-1.9,5.4h-1.9l6.3-17.4H635.9L635.9,218.4z M634.6,220.1l-3.1,8.6h6.1L634.6,220.1z M646.2,233.3v2.5h-2.3v-2.5H646.2z"/>
</g>
<g>
	<path class="st0" d="M626.2,106.7h-6.8v4.4h7.6v3.4h-11.9V95.9h11.5v3.4h-7.3v3.9h6.8L626.2,106.7L626.2,106.7z"/>
	<path class="st0" d="M631.6,114.8c-1.4,0-2.4-1.1-2.4-2.5c0-1.5,1-2.6,2.5-2.6s2.5,1,2.5,2.6C634.1,113.8,633.1,114.8,631.6,114.8
		L631.6,114.8z"/>
	<path class="st0" d="M640.4,99.5h-5v-3.5h14.3v3.5h-5.1v15.1h-4.2V99.5z"/>
	<path class="st0" d="M651.6,114.8c-1.4,0-2.4-1.1-2.4-2.5c0-1.5,1-2.6,2.5-2.6s2.5,1,2.5,2.6C654.1,113.8,653.1,114.8,651.6,114.8
		L651.6,114.8z"/>
	<path class="st0" d="M656.9,110.2c1.1,0.6,2.9,1.2,4.7,1.2c1.9,0,3-0.8,3-2c0-1.2-0.9-1.8-3.1-2.6c-3.1-1.1-5.1-2.8-5.1-5.5
		c0-3.2,2.6-5.6,7-5.6c2.1,0,3.6,0.4,4.7,0.9l-0.9,3.4c-0.7-0.4-2.1-0.9-3.9-0.9c-1.8,0-2.7,0.8-2.7,1.8c0,1.2,1,1.7,3.4,2.6
		c3.3,1.2,4.8,2.9,4.8,5.5c0,3.1-2.4,5.8-7.5,5.8c-2.1,0-4.2-0.6-5.3-1.2L656.9,110.2z"/>
	<path class="st0" d="M673.7,114.8c-1.4,0-2.4-1.1-2.4-2.5c0-1.5,1-2.6,2.5-2.6s2.5,1,2.5,2.6C676.2,113.8,675.2,114.8,673.7,114.8
		L673.7,114.8z"/>
</g>
</svg>
